<?xml version="1.0" encoding="iso-8859-1"?>
<!-- Generator: Adobe Illustrator 18.1.1, SVG Export Plug-In . SVG Version: 6.00 Build 0)  -->
<svg version="1.1" id="Capa_1" xmlns="http://www.w3.org/2000/svg" xmlns:xlink="http://www.w3.org/1999/xlink" x="0px" y="0px"
	 viewBox="0 0 492 492" style="enable-background:new 0 0 492 492;" xml:space="preserve">
<g>
	<g>
		<path style="fill:#52CECF;" d="M456,247c-2-10-8-15-18-15c-5.333,0-10,2-14,6l-68,64c-1.333,1.334-2.333,2.667-3,4
			c-3.333,4-4.5,8.667-3.5,14c1,5.334,3.5,9.667,7.5,13c1.333,1.333,3,2.333,5,3l17,6c-8,23.333-22.667,44.333-44,63
			s-44.333,30.667-69,36V133c13.333-5.335,24.833-14.168,34.5-26.5C310.167,94.166,315,81.333,315,68c0-18.667-6.667-34.667-20-48
			S265.667,0,247,0s-34.5,6.667-47.5,20S180,49.333,180,68c0,13.333,4.5,26.167,13.5,38.5s19.833,21.167,32.5,26.5v308
			c-25.333-4.667-48.5-16.333-69.5-35s-35.833-40-44.5-64l18-6c2-0.667,3.667-1.667,5-3c4-3.333,6.5-7.667,7.5-13s-0.167-10-3.5-14
			c-1.333-2-2.333-3.333-3-4l-68-64c-4-4-8.667-6-14-6c-10,0-16,5-18,15l-15,93v4c0,5.333,1.833,10,5.5,14s8.167,6,13.5,6
			c2.667,0,4.667-0.333,6-1l16-5c13.333,39.333,36.667,71.5,70,96.5S203.333,492,246,492s80.833-12.5,114.5-37.5
			s56.833-57.167,69.5-96.5l16,5c1.333,0.667,3.333,1,6,1c5.333,0,9.833-2,13.5-6s5.5-8.667,5.5-14v-4L456,247z M228,87.5
			c-5.333-5.667-8-12.333-8-20s2.667-14.167,8-19.5s11.833-8,19.5-8s14.167,2.667,19.5,8s8,12,8,20s-2.667,14.667-8,20
			s-11.833,8-19.5,8S233.333,93.167,228,87.5z"/>
	</g>
</g>
<g>
</g>
<g>
</g>
<g>
</g>
<g>
</g>
<g>
</g>
<g>
</g>
<g>
</g>
<g>
</g>
<g>
</g>
<g>
</g>
<g>
</g>
<g>
</g>
<g>
</g>
<g>
</g>
<g>
</g>
</svg>
