<?xml version="1.0" encoding="iso-8859-1"?>
<!-- Generator: Adobe Illustrator 19.0.0, SVG Export Plug-In . SVG Version: 6.00 Build 0)  -->
<svg version="1.1" id="Capa_1" xmlns="http://www.w3.org/2000/svg" xmlns:xlink="http://www.w3.org/1999/xlink" x="0px" y="0px"
	 viewBox="0 0 512 512" style="enable-background:new 0 0 512 512;" xml:space="preserve">
<g>
	<g>
		<path style="fill:cyan" d="M407.072,374.202C433.415,340.547,448,298.85,448,256c0-88.829-61.909-166.438-147.85-186.711
			c-20.319-40.901-34.781-63.781-35.191-64.414c-2-3.083-5.563-4.344-9.104-4.875c-3.667,0.052-7.052,1.99-8.969,5.125
			c-13.103,21.526-25.092,43.073-36.168,64.484C125.435,90.292,64,167.771,64,256c0,42.181,14.216,83.41,39.897,116.829
			c-15.973,76.823-18.507,126.935-18.553,128.046c-0.198,4.635,2.615,8.865,6.979,10.469C93.521,511.792,94.771,512,96,512
			c3.219,0,6.354-1.469,8.417-4.115c21.306-27.393,44.047-55.009,66.13-80.385C197.069,440.721,226.337,448,256,448
			c39.573,0,78.374-12.555,110.635-35.345c13.883,22.865,27.652,47.777,39.823,72.116c2.344,4.667,7.729,6.938,12.75,5.406
			c5-1.583,8.115-6.552,7.344-11.74C421.15,441.973,414.513,407.201,407.072,374.202z M85.333,256c0-72,46.03-135.906,112.21-160.15
			c-44.129,91.18-71.042,178.465-87.384,248.51C93.945,317.809,85.333,287.707,85.333,256z M256,426.667
			c-24.457,0-48.598-5.624-70.803-15.78C231.766,358.846,273.065,320,288,320c13.568,0,39.871,31.813,67.31,74.539
			C326.217,415.512,292.124,426.667,256,426.667z M288,298.667c-37.49,0-131.656,110.521-178.083,167.979
			c8.781-73.99,39.99-253.896,146.083-435.177c25.458,44.344,98.813,184.271,138.354,385.635
			C363.5,363.49,319.656,298.667,288,298.667z M400.393,346.642c-26.326-106.723-60.345-192.547-87.833-251.51
			C379.802,118.813,426.667,183.145,426.667,256C426.667,288.178,417.361,319.599,400.393,346.642z"/>
	</g>
</g>
<g>
</g>
<g>
</g>
<g>
</g>
<g>
</g>
<g>
</g>
<g>
</g>
<g>
</g>
<g>
</g>
<g>
</g>
<g>
</g>
<g>
</g>
<g>
</g>
<g>
</g>
<g>
</g>
<g>
</g>
</svg>
