<?xml version="1.0" encoding="UTF-8" standalone="no"?>
<!-- Created with Inkscape (http://www.inkscape.org/) -->
<svg xmlns:svg="http://www.w3.org/2000/svg" xmlns="http://www.w3.org/2000/svg" version="1.0" width="400" height="300" viewBox="0 0 797.02 597.764" id="svg2" xml:space="preserve"><defs id="defs343"/>
<g style="display:none" id="Layer_1">
	<path d="M 403.51,414.882 C 407.376,414.882 410.51,418.016 410.51,421.882 C 410.51,425.748 407.376,428.882 403.51,428.882 C 399.644,428.882 396.51,425.748 396.51,421.882 C 396.51,418.016 399.644,414.882 403.51,414.882 z " style="fill:white;stroke:black;display:inline" id="path5"/>
	<path d="M 452.51,389.882 C 456.376,389.882 459.51,393.016 459.51,396.882 C 459.51,400.748 456.376,403.882 452.51,403.882 C 448.644,403.882 445.51,400.748 445.51,396.882 C 445.51,393.016 448.644,389.882 452.51,389.882 z " style="fill:white;stroke:black;display:inline" id="path7"/>
	<path d="M 372.51,423.882 C 376.376,423.882 379.51,427.016 379.51,430.882 C 379.51,434.748 376.376,437.882 372.51,437.882 C 368.644,437.882 365.51,434.748 365.51,430.882 C 365.51,427.016 368.644,423.882 372.51,423.882 z " style="fill:white;stroke:black;display:inline" id="path9"/>
	<path d="M 453.51,353.882 C 457.376,353.882 460.51,357.016 460.51,360.882 C 460.51,364.748 457.376,367.882 453.51,367.882 C 449.644,367.882 446.51,364.748 446.51,360.882 C 446.51,357.016 449.644,353.882 453.51,353.882 z " style="fill:white;stroke:black;display:inline" id="path11"/>
	<path d="M 478.51,239.882 C 482.376,239.882 485.51,243.016 485.51,246.882 C 485.51,250.748 482.376,253.882 478.51,253.882 C 474.644,253.882 471.51,250.748 471.51,246.882 C 471.51,243.016 474.644,239.882 478.51,239.882 z " style="fill:white;stroke:black;display:inline" id="path13"/>
	<path d="M 637.51,266.882 C 641.376,266.882 644.51,270.016 644.51,273.882 C 644.51,277.748 641.376,280.882 637.51,280.882 C 633.644,280.882 630.51,277.748 630.51,273.882 C 630.51,270.016 633.644,266.882 637.51,266.882 z " style="fill:white;stroke:black;display:inline" id="path15"/>
	<path d="M 381.51,165.882 C 385.376,165.882 388.51,169.016 388.51,172.882 C 388.51,176.748 385.376,179.882 381.51,179.882 C 377.644,179.882 374.51,176.748 374.51,172.882 C 374.51,169.016 377.644,165.882 381.51,165.882 z " style="fill:white;stroke:black;display:inline" id="path17"/>
	<path d="M 489.51,481.882 C 493.376,481.882 496.51,485.016 496.51,488.882 C 496.51,492.748 493.376,495.882 489.51,495.882 C 485.644,495.882 482.51,492.748 482.51,488.882 C 482.51,485.016 485.644,481.882 489.51,481.882 z " style="fill:white;stroke:black;display:inline" id="path19"/>
	<path d="M 461.51,126.882 C 465.376,126.882 468.51,130.016 468.51,133.882 C 468.51,137.748 465.376,140.882 461.51,140.882 C 457.644,140.882 454.51,137.748 454.51,133.882 C 454.51,130.016 457.644,126.882 461.51,126.882 z " style="fill:white;stroke:black;display:inline" id="path21"/>
	<path d="M 635.51,225.882 C 639.376,225.882 642.51,229.016 642.51,232.882 C 642.51,236.748 639.376,239.882 635.51,239.882 C 631.644,239.882 628.51,236.748 628.51,232.882 C 628.51,229.016 631.644,225.882 635.51,225.882 z " style="fill:white;stroke:black;display:inline" id="path23"/>
	<path d="M 609.51,210.882 C 613.376,210.882 616.51,214.016 616.51,217.882 C 616.51,221.748 613.376,224.882 609.51,224.882 C 605.644,224.882 602.51,221.748 602.51,217.882 C 602.51,214.016 605.644,210.882 609.51,210.882 z " style="fill:white;stroke:black;display:inline" id="path25"/>
	<path d="M 620.51,148.882 C 624.376,148.882 627.51,152.016 627.51,155.882 C 627.51,159.748 624.376,162.882 620.51,162.882 C 616.644,162.882 613.51,159.748 613.51,155.882 C 613.51,152.016 616.644,148.882 620.51,148.882 z " style="fill:white;stroke:black;display:inline" id="path27"/>
	<path d="M 651.51,197.882 C 655.376,197.882 658.51,201.016 658.51,204.882 C 658.51,208.748 655.376,211.882 651.51,211.882 C 647.644,211.882 644.51,208.748 644.51,204.882 C 644.51,201.016 647.644,197.882 651.51,197.882 z " style="fill:white;stroke:black;display:inline" id="path29"/>
	<path d="M 665.51,164.882 C 669.376,164.882 672.51,168.016 672.51,171.882 C 672.51,175.748 669.376,178.882 665.51,178.882 C 661.644,178.882 658.51,175.748 658.51,171.882 C 658.51,168.016 661.644,164.882 665.51,164.882 z " style="fill:white;stroke:black;display:inline" id="path31"/>
	<path d="M 638.51,113.882 C 642.376,113.882 645.51,117.016 645.51,120.882 C 645.51,124.748 642.376,127.882 638.51,127.882 C 634.644,127.882 631.51,124.748 631.51,120.882 C 631.51,117.016 634.644,113.882 638.51,113.882 z " style="fill:white;stroke:black;display:inline" id="path33"/>
	<path d="M 358.51,383.882 C 362.376,383.882 365.51,387.016 365.51,390.882 C 365.51,394.748 362.376,397.882 358.51,397.882 C 354.644,397.882 351.51,394.748 351.51,390.882 C 351.51,387.016 354.644,383.882 358.51,383.882 z " style="fill:white;stroke:black;display:inline" id="path35"/>
	<path d="M 417.26,431.382 C 424.578,431.382 430.51,437.315 430.51,444.632 C 430.51,451.949 424.578,457.882 417.26,457.882 C 409.942,457.882 404.01,451.949 404.01,444.632 C 404.01,437.315 409.941,431.382 417.26,431.382 z " style="fill:white;stroke:black;display:inline" id="path37"/>
	<path d="M 316.26,415.382 C 323.578,415.382 329.51,421.315 329.51,428.632 C 329.51,435.949 323.578,441.882 316.26,441.882 C 308.942,441.882 303.01,435.949 303.01,428.632 C 303.01,421.315 308.942,415.382 316.26,415.382 z " style="fill:white;stroke:black;display:inline" id="path39"/>
	<path d="M 571.26,296.382 C 578.026,296.382 583.51,301.866 583.51,308.632 C 583.51,315.398 578.026,320.882 571.26,320.882 C 564.494,320.882 559.01,315.398 559.01,308.632 C 559.01,301.866 564.494,296.382 571.26,296.382 z " style="fill:white;stroke:black;display:inline" id="path41"/>
	<path d="M 264.01,269.882 C 269.257,269.882 273.51,274.135 273.51,279.382 C 273.51,284.629 269.257,288.882 264.01,288.882 C 258.763,288.882 254.51,284.629 254.51,279.382 C 254.51,274.135 258.763,269.882 264.01,269.882 z " style="fill:white;stroke:black;display:inline" id="path43"/>
	<path d="M 337.01,155.882 C 342.257,155.882 346.51,160.135 346.51,165.382 C 346.51,170.629 342.257,174.882 337.01,174.882 C 331.763,174.882 327.51,170.629 327.51,165.382 C 327.51,160.135 331.763,155.882 337.01,155.882 z " style="fill:white;stroke:black;display:inline" id="path45"/>
	<path d="M 382.51,70.882 C 388.033,70.882 392.51,75.359 392.51,80.882 C 392.51,86.405 388.033,90.882 382.51,90.882 C 376.987,90.882 372.51,86.405 372.51,80.882 C 372.51,75.359 376.987,70.882 382.51,70.882 z " style="fill:white;stroke:black;display:inline" id="path47"/>
	<path d="M 243.01,229.882 C 246.6,229.882 249.51,232.792 249.51,236.382 C 249.51,239.972 246.6,242.882 243.01,242.882 C 239.42,242.882 236.51,239.972 236.51,236.382 C 236.51,232.792 239.42,229.882 243.01,229.882 z " style="fill:white;stroke:black;display:inline" id="path49"/>
	<path d="M 497.51,343.882 C 504.137,343.882 509.51,349.255 509.51,355.882 C 509.51,362.509 504.137,367.882 497.51,367.882 C 490.883,367.882 485.51,362.509 485.51,355.882 C 485.51,349.255 490.883,343.882 497.51,343.882 z " style="fill:white;stroke:black;display:inline" id="path51"/>
	<path d="M 478.01,361.882 C 481.6,361.882 484.51,364.792 484.51,368.382 C 484.51,371.972 481.6,374.882 478.01,374.882 C 474.42,374.882 471.51,371.972 471.51,368.382 C 471.51,364.792 474.42,361.882 478.01,361.882 z " style="fill:white;stroke:black;display:inline" id="path53"/>
	<path d="M 477.51,268.882 C 483.585,268.882 488.51,273.807 488.51,279.882 C 488.51,285.957 483.585,290.882 477.51,290.882 C 471.435,290.882 466.51,285.957 466.51,279.882 C 466.51,273.807 471.435,268.882 477.51,268.882 z " style="fill:white;stroke:black;display:inline" id="path55"/>
	<path d="M 520.51,295.882 C 524.928,295.882 528.51,299.464 528.51,303.882 C 528.51,308.3 524.928,311.882 520.51,311.882 C 516.092,311.882 512.51,308.3 512.51,303.882 C 512.51,299.464 516.092,295.882 520.51,295.882 z " style="fill:white;stroke:black;display:inline" id="path57"/>
	<path d="M 537.51,309.882 C 542.481,309.882 546.51,313.911 546.51,318.882 C 546.51,323.853 542.481,327.882 537.51,327.882 C 532.539,327.882 528.51,323.853 528.51,318.882 C 528.51,313.911 532.539,309.882 537.51,309.882 z " style="fill:white;stroke:black;display:inline" id="path59"/>
	<path d="M 381.01,384.882 C 385.152,384.882 388.51,388.239 388.51,392.382 C 388.51,396.525 385.152,399.882 381.01,399.882 C 376.868,399.882 373.51,396.525 373.51,392.382 C 373.51,388.239 376.868,384.882 381.01,384.882 z " style="fill:white;stroke:black;display:inline" id="path61"/>
	<path d="M 409.51,364.882 C 413.376,364.882 416.51,368.016 416.51,371.882 C 416.51,375.748 413.376,378.882 409.51,378.882 C 405.644,378.882 402.51,375.748 402.51,371.882 C 402.51,368.016 405.644,364.882 409.51,364.882 z " style="fill:white;stroke:black;display:inline" id="path63"/>
	<path d="M 441.01,333.882 C 444.6,333.882 447.51,336.792 447.51,340.382 C 447.51,343.972 444.6,346.882 441.01,346.882 C 437.42,346.882 434.51,343.972 434.51,340.382 C 434.51,336.792 437.42,333.882 441.01,333.882 z " style="fill:white;stroke:black;display:inline" id="path65"/>
	<path d="M 476.01,303.882 C 481.256,303.882 485.51,308.136 485.51,313.382 C 485.51,318.628 481.256,322.882 476.01,322.882 C 470.764,322.882 466.51,318.628 466.51,313.382 C 466.51,308.136 470.764,303.882 476.01,303.882 z " style="fill:white;stroke:black;display:inline" id="path67"/>
	<path d="M 423.51,159.882 C 429.033,159.882 433.51,164.359 433.51,169.882 C 433.51,175.405 429.033,179.882 423.51,179.882 C 417.987,179.882 413.51,175.405 413.51,169.882 C 413.51,164.359 417.986,159.882 423.51,159.882 z " style="fill:white;stroke:black;display:inline" id="path69"/>
	<path d="M 301.51,301.882 C 305.376,301.882 308.51,305.016 308.51,308.882 C 308.51,312.748 305.376,315.882 301.51,315.882 C 297.644,315.882 294.51,312.748 294.51,308.882 C 294.51,305.016 297.644,301.882 301.51,301.882 z " style="fill:white;stroke:black;display:inline" id="path71"/>
	<path d="M 345.01,323.882 C 348.6,323.882 351.51,326.792 351.51,330.382 C 351.51,333.972 348.6,336.882 345.01,336.882 C 341.42,336.882 338.51,333.972 338.51,330.382 C 338.51,326.792 341.42,323.882 345.01,323.882 z " style="fill:white;stroke:black;display:inline" id="path73"/>
	<path d="M 323.01,360.882 C 326.6,360.882 329.51,363.792 329.51,367.382 C 329.51,370.972 326.6,373.882 323.01,373.882 C 319.42,373.882 316.51,370.972 316.51,367.382 C 316.51,363.792 319.42,360.882 323.01,360.882 z " style="fill:white;stroke:black;display:inline" id="path75"/>
	<path d="M 244.01,340.882 C 249.809,340.882 254.51,345.583 254.51,351.382 C 254.51,357.181 249.809,361.882 244.01,361.882 C 238.211,361.882 233.51,357.181 233.51,351.382 C 233.51,345.583 238.211,340.882 244.01,340.882 z " style="fill:white;stroke:black;display:inline" id="path77"/>
	<path d="M 249.01,369.882 C 254.257,369.882 258.51,374.135 258.51,379.382 C 258.51,384.629 254.257,388.882 249.01,388.882 C 243.763,388.882 239.51,384.629 239.51,379.382 C 239.51,374.135 243.763,369.882 249.01,369.882 z " style="fill:white;stroke:black;display:inline" id="path79"/>
	<path d="M 412.51,277.882 C 415.823,277.882 418.51,280.569 418.51,283.882 C 418.51,287.195 415.823,289.882 412.51,289.882 C 409.197,289.882 406.51,287.195 406.51,283.882 C 406.51,280.569 409.196,277.882 412.51,277.882 z " style="fill:white;stroke:black;display:inline" id="path81"/>
	<path d="M 597.01,257.882 C 602.256,257.882 606.51,262.135 606.51,267.382 C 606.51,272.629 602.256,276.882 597.01,276.882 C 591.763,276.882 587.51,272.629 587.51,267.382 C 587.51,262.135 591.763,257.882 597.01,257.882 z " style="fill:white;stroke:black;display:inline" id="path83"/>
	<path d="M 588.01,239.882 C 592.153,239.882 595.51,243.24 595.51,247.382 C 595.51,251.524 592.153,254.882 588.01,254.882 C 583.867,254.882 580.51,251.524 580.51,247.382 C 580.51,243.24 583.867,239.882 588.01,239.882 z " style="fill:white;stroke:black;display:inline" id="path85"/>
	<path d="M 563.51,244.882 C 567.928,244.882 571.51,248.464 571.51,252.882 C 571.51,257.3 567.928,260.882 563.51,260.882 C 559.092,260.882 555.51,257.3 555.51,252.882 C 555.51,248.464 559.092,244.882 563.51,244.882 z " style="fill:white;stroke:black;display:inline" id="path87"/>
	<path d="M 515.51,72.882 C 519.928,72.882 523.51,76.464 523.51,80.882 C 523.51,85.3 519.928,88.882 515.51,88.882 C 511.092,88.882 507.51,85.3 507.51,80.882 C 507.51,76.464 511.092,72.882 515.51,72.882 z " style="fill:white;stroke:black;display:inline" id="path89"/>
	<path d="M 565.51,61.882 C 569.928,61.882 573.51,65.464 573.51,69.882 C 573.51,74.3 569.928,77.882 565.51,77.882 C 561.092,77.882 557.51,74.3 557.51,69.882 C 557.51,65.464 561.092,61.882 565.51,61.882 z " style="fill:white;stroke:black;display:inline" id="path91"/>
	<path d="M 480.51,330.882 C 483.823,330.882 486.51,333.569 486.51,336.882 C 486.51,340.195 483.823,342.882 480.51,342.882 C 477.197,342.882 474.51,340.195 474.51,336.882 C 474.51,333.569 477.196,330.882 480.51,330.882 z " style="fill:white;stroke:black;display:inline" id="path93"/>
	<path d="M 588.01,288.882 C 592.153,288.882 595.51,292.24 595.51,296.382 C 595.51,300.525 592.153,303.882 588.01,303.882 C 583.867,303.882 580.51,300.525 580.51,296.382 C 580.51,292.24 583.867,288.882 588.01,288.882 z " style="fill:white;stroke:black;display:inline" id="path95"/>
	<path d="M 602.01,313.882 C 606.153,313.882 609.51,317.239 609.51,321.382 C 609.51,325.525 606.153,328.882 602.01,328.882 C 597.867,328.882 594.51,325.525 594.51,321.382 C 594.51,317.239 597.867,313.882 602.01,313.882 z " style="fill:white;stroke:black;display:inline" id="path97"/>
	<path d="M 579.51,207.882 C 583.928,207.882 587.51,211.464 587.51,215.882 C 587.51,220.3 583.928,223.882 579.51,223.882 C 575.092,223.882 571.51,220.3 571.51,215.882 C 571.51,211.464 575.092,207.882 579.51,207.882 z " style="fill:white;stroke:black;display:inline" id="path99"/>
	<path d="M 638.01,175.882 C 643.809,175.882 648.51,180.583 648.51,186.382 C 648.51,192.181 643.809,196.882 638.01,196.882 C 632.211,196.882 627.51,192.181 627.51,186.382 C 627.51,180.583 632.211,175.882 638.01,175.882 z " style="fill:white;stroke:black;display:inline" id="path101"/>
	<path d="M 352.51,413.882 C 358.033,413.882 362.51,418.36 362.51,423.882 C 362.51,429.404 358.033,433.882 352.51,433.882 C 346.987,433.882 342.51,429.404 342.51,423.882 C 342.51,418.36 346.987,413.882 352.51,413.882 z " style="fill:white;stroke:black;display:inline" id="path103"/>
	<path d="M 343.51,437.882 C 346.823,437.882 349.51,440.569 349.51,443.882 C 349.51,447.195 346.823,449.882 343.51,449.882 C 340.197,449.882 337.51,447.195 337.51,443.882 C 337.51,440.569 340.196,437.882 343.51,437.882 z " style="fill:white;stroke:black;display:inline" id="path105"/>
	<path d="M 259.01,430.882 C 262.6,430.882 265.51,433.792 265.51,437.382 C 265.51,440.972 262.6,443.882 259.01,443.882 C 255.42,443.882 252.51,440.972 252.51,437.382 C 252.51,433.792 255.42,430.882 259.01,430.882 z " style="fill:white;stroke:black;display:inline" id="path107"/>
	<path d="M 382.51,457.882 C 388.033,457.882 392.51,462.36 392.51,467.882 C 392.51,473.404 388.033,477.882 382.51,477.882 C 376.987,477.882 372.51,473.404 372.51,467.882 C 372.51,462.36 376.987,457.882 382.51,457.882 z " style="fill:white;stroke:black;display:inline" id="path109"/>
	<path d="M 325.01,471.882 C 328.6,471.882 331.51,474.792 331.51,478.382 C 331.51,481.972 328.6,484.882 325.01,484.882 C 321.42,484.882 318.51,481.972 318.51,478.382 C 318.51,474.792 321.42,471.882 325.01,471.882 z " style="fill:white;stroke:black;display:inline" id="path111"/>
	<path d="M 304.01,468.882 C 307.6,468.882 310.51,471.792 310.51,475.382 C 310.51,478.972 307.6,481.882 304.01,481.882 C 300.42,481.882 297.51,478.972 297.51,475.382 C 297.51,471.792 300.42,468.882 304.01,468.882 z " style="fill:white;stroke:black;display:inline" id="path113"/>
	<path d="M 371.01,479.882 C 374.6,479.882 377.51,482.792 377.51,486.382 C 377.51,489.972 374.6,492.882 371.01,492.882 C 367.42,492.882 364.51,489.972 364.51,486.382 C 364.51,482.792 367.42,479.882 371.01,479.882 z " style="fill:white;stroke:black;display:inline" id="path115"/>
	<path d="M 387.01,485.882 C 391.704,485.882 395.51,489.688 395.51,494.382 C 395.51,499.076 391.704,502.882 387.01,502.882 C 382.316,502.882 378.51,499.076 378.51,494.382 C 378.51,489.688 382.315,485.882 387.01,485.882 z " style="fill:white;stroke:black;display:inline" id="path117"/>
	<path d="M 333.01,509.882 C 336.6,509.882 339.51,512.792 339.51,516.382 C 339.51,519.972 336.6,522.882 333.01,522.882 C 329.42,522.882 326.51,519.972 326.51,516.382 C 326.51,512.792 329.42,509.882 333.01,509.882 z " style="fill:white;stroke:black;display:inline" id="path119"/>
	<path d="M 536.01,351.882 C 539.6,351.882 542.51,354.792 542.51,358.382 C 542.51,361.972 539.6,364.882 536.01,364.882 C 532.42,364.882 529.51,361.972 529.51,358.382 C 529.51,354.792 532.42,351.882 536.01,351.882 z " style="fill:white;stroke:black;display:inline" id="path121"/>
	<path d="M 478.01,407.882 C 484.913,407.882 490.51,413.479 490.51,420.382 C 490.51,427.285 484.913,432.882 478.01,432.882 C 471.106,432.882 465.51,427.285 465.51,420.382 C 465.51,413.479 471.105,407.882 478.01,407.882 z " style="fill:white;stroke:black;display:inline" id="path123"/>
	<path d="M 507.01,430.882 C 511.704,430.882 515.51,434.688 515.51,439.382 C 515.51,444.076 511.704,447.882 507.01,447.882 C 502.316,447.882 498.51,444.076 498.51,439.382 C 498.51,434.688 502.315,430.882 507.01,430.882 z " style="fill:white;stroke:black;display:inline" id="path125"/>
	<path d="M 513.51,384.882 C 517.376,384.882 520.51,388.016 520.51,391.882 C 520.51,395.748 517.376,398.882 513.51,398.882 C 509.644,398.882 506.51,395.748 506.51,391.882 C 506.51,388.016 509.644,384.882 513.51,384.882 z " style="fill:white;stroke:black;display:inline" id="path127"/>
	<path d="M 575.01,334.882 C 578.6,334.882 581.51,337.792 581.51,341.382 C 581.51,344.972 578.6,347.882 575.01,347.882 C 571.42,347.882 568.51,344.972 568.51,341.382 C 568.51,337.792 571.42,334.882 575.01,334.882 z " style="fill:white;stroke:black;display:inline" id="path129"/>
	<path d="M 514.51,449.882 C 517.823,449.882 520.51,452.569 520.51,455.882 C 520.51,459.195 517.823,461.882 514.51,461.882 C 511.197,461.882 508.51,459.195 508.51,455.882 C 508.51,452.569 511.196,449.882 514.51,449.882 z " style="fill:white;stroke:black;display:inline" id="path131"/>
	<path d="M 529.51,439.882 C 533.376,439.882 536.51,443.016 536.51,446.882 C 536.51,450.748 533.376,453.882 529.51,453.882 C 525.644,453.882 522.51,450.748 522.51,446.882 C 522.51,443.016 525.644,439.882 529.51,439.882 z " style="fill:white;stroke:black;display:inline" id="path133"/>
	<path d="M 504.01,493.882 C 507.6,493.882 510.51,496.792 510.51,500.382 C 510.51,503.972 507.6,506.882 504.01,506.882 C 500.42,506.882 497.51,503.972 497.51,500.382 C 497.51,496.792 500.42,493.882 504.01,493.882 z " style="fill:white;stroke:black;display:inline" id="path135"/>
	<path d="M 532.01,474.882 C 537.256,474.882 541.51,479.135 541.51,484.382 C 541.51,489.629 537.256,493.882 532.01,493.882 C 526.763,493.882 522.51,489.629 522.51,484.382 C 522.51,479.135 526.763,474.882 532.01,474.882 z " style="fill:white;stroke:black;display:inline" id="path137"/>
	<path d="M 515.51,550.882 C 519.376,550.882 522.51,554.016 522.51,557.882 C 522.51,561.748 519.376,564.882 515.51,564.882 C 511.644,564.882 508.51,561.748 508.51,557.882 C 508.51,554.016 511.644,550.882 515.51,550.882 z " style="fill:white;stroke:black;display:inline" id="path139"/>
	<path d="M 619.51,262.882 C 623.376,262.882 626.51,266.016 626.51,269.882 C 626.51,273.748 623.376,276.882 619.51,276.882 C 615.644,276.882 612.51,273.748 612.51,269.882 C 612.51,266.016 615.644,262.882 619.51,262.882 z " style="fill:white;stroke:black;display:inline" id="path141"/>
	<path d="M 630.01,348.882 C 634.153,348.882 637.51,352.239 637.51,356.382 C 637.51,360.525 634.153,363.882 630.01,363.882 C 625.867,363.882 622.51,360.525 622.51,356.382 C 622.51,352.239 625.867,348.882 630.01,348.882 z " style="fill:white;stroke:black;display:inline" id="path143"/>
	<path d="M 690.51,321.882 C 694.928,321.882 698.51,325.464 698.51,329.882 C 698.51,334.3 694.928,337.882 690.51,337.882 C 686.092,337.882 682.51,334.3 682.51,329.882 C 682.51,325.464 686.092,321.882 690.51,321.882 z " style="fill:white;stroke:black;display:inline" id="path145"/>
	<path d="M 657.01,218.882 C 661.153,218.882 664.51,222.24 664.51,226.382 C 664.51,230.524 661.153,233.882 657.01,233.882 C 652.867,233.882 649.51,230.524 649.51,226.382 C 649.51,222.24 652.867,218.882 657.01,218.882 z " style="fill:white;stroke:black;display:inline" id="path147"/>
	<path d="M 708.01,200.882 C 714.362,200.882 719.51,206.031 719.51,212.382 C 719.51,218.734 714.362,223.882 708.01,223.882 C 701.658,223.882 696.51,218.734 696.51,212.382 C 696.51,206.031 701.658,200.882 708.01,200.882 z " style="fill:white;stroke:black;display:inline" id="path149"/>
	<path d="M 691.01,230.882 C 695.153,230.882 698.51,234.24 698.51,238.382 C 698.51,242.524 695.153,245.882 691.01,245.882 C 686.867,245.882 683.51,242.524 683.51,238.382 C 683.51,234.24 686.867,230.882 691.01,230.882 z " style="fill:white;stroke:black;display:inline" id="path151"/>
	<path d="M 678.01,247.882 C 683.256,247.882 687.51,252.135 687.51,257.382 C 687.51,262.629 683.256,266.882 678.01,266.882 C 672.763,266.882 668.51,262.629 668.51,257.382 C 668.51,252.135 672.763,247.882 678.01,247.882 z " style="fill:white;stroke:black;display:inline" id="path153"/>
	<path d="M 712.01,266.882 C 717.256,266.882 721.51,271.135 721.51,276.382 C 721.51,281.629 717.256,285.882 712.01,285.882 C 706.763,285.882 702.51,281.629 702.51,276.382 C 702.51,271.135 706.763,266.882 712.01,266.882 z " style="fill:white;stroke:black;display:inline" id="path155"/>
	<path d="M 705.01,383.882 C 710.809,383.882 715.51,388.583 715.51,394.382 C 715.51,400.181 710.809,404.882 705.01,404.882 C 699.211,404.882 694.51,400.181 694.51,394.382 C 694.51,388.583 699.211,383.882 705.01,383.882 z " style="fill:white;stroke:black;display:inline" id="path157"/>
	<path d="M 664.01,454.882 C 668.153,454.882 671.51,458.239 671.51,462.382 C 671.51,466.525 668.153,469.882 664.01,469.882 C 659.867,469.882 656.51,466.525 656.51,462.382 C 656.51,458.239 659.867,454.882 664.01,454.882 z " style="fill:white;stroke:black;display:inline" id="path159"/>
</g>

<g transform="matrix(0.999999,0,0,1.000001,0,-7.481476e-5)" style="overflow:visible" id="Layer_2">
	<rect width="797.02002" height="597.76398" x="0" y="0" id="rect162"/>
	<g id="g164">
		<g id="g166">
			<path d="M 192.053,82.759 C 213.826,64.904 238.658,26.725 238.658,26.725 C 238.658,26.725 230.704,27.164 220.098,32.997 C 206.893,40.26 190.462,53.233 190.462,53.233 L 192.069,37.168 C 192.069,37.168 178.985,47.533 170.636,61.248 C 162.117,75.243 158.331,92.595 158.331,92.595 C 158.331,92.595 174.016,97.549 192.053,82.759 z M 150.759,134.789 C 163.116,123.607 171.987,107.856 171.987,107.856 C 171.987,107.856 164.44,111.612 157.41,112.746 C 152.301,113.571 147.086,111.872 147.086,111.872 C 147.086,111.872 144.374,106.219 144.92,96.578 C 145.569,85.095 149.495,69.299 149.495,69.299 C 149.495,69.299 134.86,85.089 128.53,104.08 C 126.752,109.413 125.42,114.957 124.414,120.327 C 120.537,138.39 121.38,153.641 121.38,153.641 C 121.38,153.641 137.826,146.489 150.759,134.789 z M 127.627,193.644 C 137.657,182.59 143.872,165.692 143.872,165.692 C 143.872,165.692 135.378,170.432 126.647,172.448 C 120.002,173.981 112.545,172.922 112.545,172.922 C 112.545,172.922 110.211,166.047 109.281,156.21 C 107.623,138.676 108.528,111.069 108.528,111.069 C 108.528,111.069 93.418,138.533 92.792,163.351 C 92.214,186.25 104.513,209.068 104.513,209.068 C 104.513,209.068 117.985,204.27 127.627,193.644 z M 98.888,262.888 C 98.888,262.888 113.582,251.808 121.512,238.87 C 128.82,226.948 129.413,213.085 129.413,213.085 C 129.413,213.085 122.326,216.957 114.788,219.888 C 107.895,222.569 100.495,224.331 100.495,224.331 C 100.495,224.331 92.296,215.377 87.254,203.613 C 79.603,185.758 73.987,162.48 73.987,162.48 C 73.987,162.48 65.864,193.651 72.144,218.973 C 78.314,243.85 98.888,262.888 98.888,262.888 z M 102.905,323.936 C 102.905,323.936 113.037,313.254 118.498,299.796 C 124.273,285.564 125.397,268.51 125.397,268.51 L 102.102,289.395 C 102.102,289.395 89.587,281.104 78.837,266.881 C 64.116,247.403 49.889,220.314 49.889,220.314 C 49.889,220.314 48.096,262.706 61.457,288.819 C 74.603,314.514 102.905,323.936 102.905,323.936 z M 118.167,380.165 C 118.167,380.165 127.112,369.806 129.919,356.47 C 133.453,339.684 131.019,319.116 131.019,319.116 C 131.019,319.116 126.945,327.639 121.75,335.429 C 117.375,341.991 111.74,348.034 111.74,348.034 C 111.74,348.034 97.134,342.153 82.873,328.701 C 62.802,309.771 40.249,278.951 40.249,278.951 C 40.249,278.951 42.329,324.916 61.439,349.402 C 80.883,374.315 118.167,380.165 118.167,380.165 z M 149.495,433.984 C 149.495,433.984 154.937,419.491 154.745,403.464 C 154.535,385.83 148.692,366.51 148.692,366.51 L 130.216,401.854 C 130.216,401.854 112.864,402.411 95.528,393.296 C 74.301,382.135 52.299,360.886 52.299,360.886 C 52.299,360.886 66.698,401.059 91.644,419.821 C 115.261,437.582 149.495,433.984 149.495,433.984 z M 187.249,480.574 C 187.249,480.574 189.806,464.24 187.387,449.355 C 184.609,432.263 176.806,416.313 176.806,416.313 C 176.806,416.313 175.327,427.984 171.826,438.482 C 168.965,447.068 163.953,454.869 163.953,454.869 C 163.953,454.869 154.05,456.332 141.432,455.214 C 123.331,453.61 100.495,449.247 100.495,449.247 C 100.495,449.247 112.828,466.308 135.038,474.329 C 156.177,481.961 187.249,480.574 187.249,480.574 z M 204.921,452.459 L 201.708,493.426 C 201.708,493.426 192.402,497.087 179.993,497.598 C 163.636,498.27 143.069,495.835 143.069,495.835 C 143.069,495.835 161.06,511.187 182.503,516.149 C 204.431,521.227 229.823,515.918 229.823,515.918 C 229.823,515.918 232.532,501.432 226.808,487.581 C 220.151,471.479 204.921,452.459 204.921,452.459 z M 355.549,536.854 C 341.827,529.276 321.395,524.754 321.395,524.754 C 321.395,524.754 300.817,521.397 281.295,515.702 C 262.266,510.151 244.281,502.262 244.281,502.262 C 244.281,502.262 248.319,512.313 246.148,519.263 C 244.336,525.06 236.249,527.967 236.249,527.967 L 253.92,533.59 C 253.92,533.59 298.536,534.888 324.622,539.131 C 347.76,542.894 352.723,549.654 352.723,549.654 C 352.723,549.654 349.898,552.624 339.959,554.226 C 325.769,556.515 304.526,556.08 304.526,556.08 L 319.788,570.539 C 319.788,570.539 336.515,572.583 350.96,568.396 C 364.173,564.566 375.214,554.473 375.214,554.473 C 375.214,554.473 368.727,544.13 355.549,536.854 z M 604.967,82.759 C 623.004,97.549 638.688,92.593 638.688,92.593 C 638.688,92.593 634.902,75.241 626.384,61.246 C 618.035,47.531 604.951,37.166 604.951,37.166 L 606.557,53.231 C 606.557,53.231 590.126,40.258 576.92,32.995 C 566.315,27.162 558.359,26.723 558.359,26.723 C 558.359,26.723 583.193,64.904 604.967,82.759 z M 646.262,134.789 C 659.193,146.489 675.639,153.642 675.639,153.642 C 675.639,153.642 676.483,138.41 672.613,120.36 C 671.607,114.981 670.272,109.424 668.491,104.08 C 662.159,85.088 647.526,69.299 647.526,69.299 C 647.526,69.299 651.45,85.095 652.101,96.578 C 652.645,106.22 649.935,111.872 649.935,111.872 C 649.935,111.872 644.719,113.571 639.61,112.746 C 632.581,111.612 625.033,107.856 625.033,107.856 C 625.033,107.856 633.903,123.607 646.262,134.789 z M 653.147,165.691 C 653.147,165.691 659.363,182.589 669.392,193.643 C 679.035,204.269 692.507,209.067 692.507,209.067 C 692.507,209.067 704.804,186.249 704.228,163.35 C 703.602,138.532 688.491,111.068 688.491,111.068 C 688.491,111.068 689.396,138.674 687.738,156.209 C 686.807,166.046 684.474,172.921 684.474,172.921 C 684.474,172.921 677.016,173.981 670.371,172.447 C 661.643,170.432 653.147,165.691 653.147,165.691 z M 682.23,219.888 C 674.693,216.957 667.606,213.085 667.606,213.085 C 667.606,213.085 668.2,226.948 675.507,238.87 C 683.437,251.808 698.13,262.888 698.13,262.888 C 698.13,262.888 718.705,243.85 724.874,218.972 C 731.153,193.65 723.031,162.479 723.031,162.479 C 723.031,162.479 717.415,185.757 709.762,203.611 C 704.72,215.376 696.523,224.33 696.523,224.33 C 696.523,224.33 689.124,222.568 682.23,219.888 z M 694.918,289.396 L 671.623,268.511 C 671.623,268.511 672.745,285.565 678.521,299.797 C 683.981,313.255 694.114,323.937 694.114,323.937 C 694.114,323.937 722.417,314.515 735.563,288.821 C 748.922,262.707 747.13,220.316 747.13,220.316 C 747.13,220.316 732.903,247.405 718.182,266.883 C 707.432,281.104 694.918,289.396 694.918,289.396 z M 714.146,328.702 C 699.883,342.154 685.278,348.035 685.278,348.035 C 685.278,348.035 679.642,341.991 675.267,335.43 C 670.074,327.64 665.999,319.117 665.999,319.117 C 665.999,319.117 663.563,339.684 667.099,356.471 C 669.907,369.807 678.851,380.166 678.851,380.166 C 678.851,380.166 716.136,374.316 735.58,349.404 C 754.691,324.919 756.769,278.953 756.769,278.953 C 756.769,278.953 734.216,309.772 714.146,328.702 z M 666.803,401.854 L 648.327,366.51 C 648.327,366.51 642.484,385.83 642.274,403.464 C 642.083,419.49 647.525,433.984 647.525,433.984 C 647.525,433.984 681.758,437.582 705.375,419.821 C 730.32,401.059 744.721,360.886 744.721,360.886 C 744.721,360.886 722.717,382.135 701.492,393.296 C 684.154,402.411 666.803,401.854 666.803,401.854 z M 633.065,454.869 C 633.065,454.869 628.055,447.068 625.193,438.482 C 621.694,427.984 620.213,416.313 620.213,416.313 C 620.213,416.313 612.41,432.263 609.633,449.355 C 607.214,464.24 609.771,480.574 609.771,480.574 C 609.771,480.574 640.842,481.962 661.982,474.329 C 684.193,466.308 696.525,449.247 696.525,449.247 C 696.525,449.247 673.688,453.609 655.587,455.214 C 642.969,456.332 633.065,454.869 633.065,454.869 z M 617.026,497.598 C 604.616,497.087 595.311,493.426 595.311,493.426 L 592.098,452.459 C 592.098,452.459 576.868,471.479 570.212,487.581 C 564.487,501.432 567.196,515.918 567.196,515.918 C 567.196,515.918 592.587,521.228 614.515,516.149 C 635.958,511.186 653.949,495.835 653.949,495.835 C 653.949,495.835 633.384,498.27 617.026,497.598 z M 550.871,519.263 C 548.7,512.313 552.738,502.262 552.738,502.262 C 552.738,502.262 534.753,510.152 515.724,515.702 C 496.202,521.396 475.623,524.754 475.623,524.754 C 475.623,524.754 455.191,529.275 441.471,536.854 C 428.293,544.13 421.804,554.475 421.804,554.475 C 421.804,554.475 432.847,564.568 446.058,568.398 C 460.503,572.585 477.23,570.541 477.23,570.541 L 492.492,556.082 C 492.492,556.082 471.249,556.517 457.058,554.228 C 447.12,552.625 444.295,549.656 444.295,549.656 C 444.295,549.656 449.258,542.895 472.397,539.133 C 498.483,534.89 543.098,533.592 543.098,533.592 L 560.77,527.969 C 560.771,527.967 552.684,525.06 550.871,519.263 z " style="fill:white;fill-rule:evenodd" id="path168"/>
		</g>
	</g>
	<g id="g170">
		<g id="g172">
			<path d="M 398.51,29.368 C 263.201,29.368 153.511,139.058 153.511,274.367 C 153.511,409.676 263.201,519.366 398.51,519.366 C 533.821,519.365 643.508,409.676 643.508,274.366 C 643.508,139.058 533.82,29.368 398.51,29.368 z M 398.51,506.511 C 270.3,506.511 166.364,402.576 166.364,274.366 C 166.364,146.155 270.3,42.22 398.51,42.22 C 526.721,42.22 630.656,146.156 630.656,274.366 C 630.656,402.577 526.721,506.511 398.51,506.511 z " style="fill:white;fill-rule:evenodd" id="path174"/>
		</g>
	</g>
	<circle cx="398.51001" cy="274.366" r="222.461" style="fill:#003cff;fill-rule:evenodd" id="circle176"/>
	<g id="g178">
		<path d="M 389.593,280.821 C 389.599,280.821 389.602,280.821 389.602,280.821 L 389.584,280.821 C 388.61,280.805 344.353,280.101 337.043,272.791 C 329.733,265.481 329.028,221.225 329.013,220.25 L 329.013,220.233 C 329.013,220.233 329.013,220.236 329.013,220.243 C 329.013,220.236 329.013,220.233 329.013,220.233 L 329.013,220.25 C 328.998,221.224 328.294,265.481 320.984,272.791 C 313.712,280.062 269.881,280.798 268.462,280.821 L 268.426,280.821 C 268.426,280.821 268.433,280.821 268.444,280.821 C 268.433,280.821 268.426,280.821 268.426,280.821 L 268.462,280.821 C 269.882,280.842 313.713,281.579 320.984,288.85 C 328.294,296.16 328.998,340.418 329.013,341.392 L 329.013,341.409 C 329.013,341.409 329.013,341.406 329.013,341.399 C 329.013,341.406 329.013,341.409 329.013,341.409 L 329.013,341.392 C 329.029,340.418 329.733,296.16 337.044,288.85 C 344.353,281.54 388.611,280.836 389.584,280.821 L 389.602,280.821 C 389.602,280.821 389.599,280.821 389.593,280.821 z " style="fill:white" id="path180"/>
		<path d="M 491.184,209.569 C 491.189,209.569 491.191,209.569 491.191,209.569 L 491.177,209.569 C 490.426,209.558 456.286,209.015 450.648,203.376 C 445.01,197.737 444.465,163.598 444.453,162.847 L 444.453,162.834 C 444.453,162.834 444.453,162.835 444.453,162.84 C 444.453,162.835 444.453,162.834 444.453,162.834 L 444.453,162.847 C 444.443,163.598 443.899,197.737 438.261,203.376 C 432.651,208.984 398.841,209.552 397.746,209.569 L 397.717,209.569 C 397.717,209.569 397.723,209.569 397.731,209.569 C 397.723,209.57 397.717,209.57 397.717,209.57 L 397.746,209.57 C 398.841,209.587 432.653,210.155 438.261,215.763 C 443.9,221.402 444.444,255.542 444.453,256.292 L 444.453,256.307 C 444.453,256.307 444.453,256.304 444.453,256.299 C 444.453,256.304 444.453,256.307 444.453,256.307 L 444.453,256.292 C 444.466,255.542 445.01,221.402 450.65,215.763 C 456.287,210.125 490.426,209.581 491.177,209.569 L 491.191,209.569 C 491.19,209.569 491.188,209.569 491.184,209.569 z " style="fill:white" id="path182"/>
		<path d="M 512.576,331.611 C 512.579,331.611 512.583,331.611 512.583,331.611 L 512.569,331.611 C 511.87,331.6 480.001,331.092 474.739,325.83 C 469.474,320.567 468.968,288.7 468.957,287.999 L 468.957,287.986 C 468.957,287.986 468.957,287.988 468.957,287.993 C 468.957,287.989 468.957,287.986 468.957,287.986 L 468.957,287.999 C 468.945,288.7 468.438,320.567 463.175,325.831 C 457.94,331.065 426.38,331.596 425.358,331.611 L 425.332,331.611 C 425.332,331.611 425.337,331.611 425.345,331.611 C 425.337,331.612 425.332,331.612 425.332,331.612 L 425.358,331.612 C 426.38,331.63 457.94,332.16 463.175,337.393 C 468.439,342.657 468.946,374.525 468.957,375.225 L 468.957,375.237 C 468.957,375.237 468.957,375.235 468.957,375.232 C 468.957,375.235 468.957,375.237 468.957,375.237 L 468.957,375.225 C 468.969,374.525 469.475,342.656 474.739,337.393 C 480.001,332.13 511.87,331.622 512.569,331.611 L 512.583,331.611 C 512.583,331.611 512.579,331.611 512.576,331.611 z " style="fill:white" id="path184"/>
		<circle cx="475.73099" cy="273.039" r="10.133" style="fill:white" id="circle186"/>
		<circle cx="415.41" cy="311.948" r="10.133" style="fill:white" id="circle188"/>
		<circle cx="348.707" cy="384.827" r="10.134" style="fill:white" id="circle190"/>
		<circle cx="398.52701" cy="248.813" r="9.4160004" style="fill:white" id="circle192"/>
		<circle cx="399.08701" cy="364.66101" r="10" style="fill:white" id="circle194"/>
		<circle cx="265.94601" cy="371.651" r="10.134" style="fill:white" id="circle196"/>
		<circle cx="588.479" cy="193.77699" r="10.134" style="fill:white" id="circle198"/>
		<circle cx="531.10901" cy="173.464" r="10.225" style="fill:white" id="circle200"/>
		<circle cx="397.293" cy="276.95001" r="7.4349999" style="fill:white" id="circle202"/>
		<circle cx="295.729" cy="367.26001" r="7.4349999" style="fill:white" id="circle204"/>
		<circle cx="209.812" cy="331.302" r="7.4349999" style="fill:white" id="circle206"/>
		<circle cx="429.819" cy="85.487999" r="7.4349999" style="fill:white" id="circle208"/>
		<circle cx="470.44501" cy="76.43" r="7.4349999" style="fill:white" id="circle210"/>
		<circle cx="222.912" cy="249.005" r="8.2110004" style="fill:white" id="circle212"/>
		<circle cx="206.424" cy="307.33099" r="8.21" style="fill:white" id="circle214"/>
		<circle cx="354.97501" cy="158.78" r="8.2110004" style="fill:white" id="circle216"/>
		<circle cx="319.466" cy="161.2" r="5.5640001" style="fill:white" id="circle218"/>
		<circle cx="385.30099" cy="129.062" r="5.5640001" style="fill:white" id="circle220"/>
		<circle cx="399.57501" cy="221.841" r="5.5640001" style="fill:white" id="circle222"/>
		<circle cx="344.72699" cy="252.658" r="5.5640001" style="fill:white" id="circle224"/>
		<circle cx="368.47101" cy="299.323" r="5.5640001" style="fill:white" id="circle226"/>
		<circle cx="377.94101" cy="345.98599" r="5.5640001" style="fill:white" id="circle228"/>
		<circle cx="378.76401" cy="315.79199" r="5.5640001" style="fill:white" id="circle230"/>
		<circle cx="399.077" cy="322.379" r="5.5640001" style="fill:white" id="circle232"/>
		<circle cx="478.819" cy="300.41901" r="5.5640001" style="fill:white" id="circle234"/>
		<path d="M 451.923,313.528 C 451.923,316.6 449.431,319.091 446.36,319.091 C 443.285,319.091 440.794,316.601 440.794,313.528 C 440.794,310.454 443.285,307.963 446.36,307.963 C 449.431,307.962 451.923,310.454 451.923,313.528 z " style="fill:white" id="path236"/>
		<circle cx="515.46399" cy="241.129" r="5.5640001" style="fill:white" id="circle238"/>
		<circle cx="401.272" cy="296.302" r="5.5640001" style="fill:white" id="circle240"/>
		<circle cx="428.17401" cy="341.595" r="5.5630002" style="fill:white" id="circle242"/>
		<circle cx="530.28699" cy="244.422" r="5.5650001" style="fill:white" id="circle244"/>
		<circle cx="574.20599" cy="215.188" r="5.5640001" style="fill:white" id="circle246"/>
		<path d="M 579.77,290.576 C 579.77,294.082 576.925,296.925 573.421,296.925 C 569.913,296.925 567.07,294.082 567.07,290.576 C 567.07,287.068 569.913,284.224 573.421,284.224 C 576.925,284.225 579.77,287.068 579.77,290.576 z " style="fill:white" id="path248"/>
		<circle cx="506.67899" cy="197.759" r="5.5640001" style="fill:white" id="circle250"/>
		<circle cx="541.815" cy="187.60201" r="5.5640001" style="fill:white" id="circle252"/>
		<circle cx="546.34497" cy="204.895" r="5.5640001" style="fill:white" id="circle254"/>
		<circle cx="516.01202" cy="147.25" r="5.5650001" style="fill:white" id="circle256"/>
		<circle cx="553.34497" cy="160.427" r="5.5640001" style="fill:white" id="circle258"/>
		<circle cx="531.10999" cy="118.154" r="5.5640001" style="fill:white" id="circle260"/>
		<circle cx="342.53101" cy="325.125" r="5.5640001" style="fill:white" id="circle262"/>
		<circle cx="337.86401" cy="365.75" r="5.5640001" style="fill:white" id="circle264"/>
		<circle cx="311.78699" cy="373.70999" r="5.5640001" style="fill:white" id="circle266"/>
		<circle cx="299.70901" cy="340.771" r="5.5640001" style="fill:white" id="circle268"/>
		<circle cx="319.74799" cy="340.772" r="5.5640001" style="fill:white" id="circle270"/>
		<circle cx="271.16199" cy="321.28101" r="5.5640001" style="fill:white" id="circle272"/>
		<circle cx="289.41599" cy="290.95001" r="5.5640001" style="fill:white" id="circle274"/>
		<circle cx="253.59399" cy="273.245" r="5.5640001" style="fill:white" id="circle276"/>
		<circle cx="205.83099" cy="213.54201" r="5.5640001" style="fill:white" id="circle278"/>
		<circle cx="217.908" cy="379.06299" r="5.5640001" style="fill:white" id="circle280"/>
		<circle cx="255.789" cy="410.35599" r="5.5640001" style="fill:white" id="circle282"/>
		<path d="M 293.745,384.005 C 293.745,387.076 291.253,389.568 288.182,389.568 C 285.108,389.568 282.617,387.077 282.617,384.005 C 282.617,380.93 285.108,378.439 288.182,378.439 C 291.253,378.439 293.745,380.93 293.745,384.005 z " style="fill:white" id="path284"/>
		<circle cx="429.819" cy="478.15601" r="5.5630002" style="fill:white" id="circle286"/>
		<circle cx="273.358" cy="413.51199" r="5.5640001" style="fill:white" id="circle288"/>
		<circle cx="279.397" cy="444.12" r="5.5640001" style="fill:white" id="circle290"/>
		<circle cx="310.689" cy="420.10001" r="5.5640001" style="fill:white" id="circle292"/>
		<circle cx="420.487" cy="430.80701" r="5.5640001" style="fill:white" id="circle294"/>
		<circle cx="428.99799" cy="394.573" r="5.5640001" style="fill:white" id="circle296"/>
		<circle cx="552.10901" cy="399.513" r="5.5640001" style="fill:white" id="circle298"/>
		<circle cx="524.11102" cy="312.772" r="5.5640001" style="fill:white" id="circle300"/>
		<circle cx="501.47101" cy="283.53299" r="6.0809999" style="fill:white" id="circle302"/>
		<circle cx="489.97" cy="262.98599" r="5.9419999" style="fill:white" id="circle304"/>
		<circle cx="433.83301" cy="269.021" r="6.2820001" style="fill:white" id="circle306"/>
		<circle cx="482.418" cy="196.554" r="6.2820001" style="fill:white" id="circle308"/>
		<circle cx="469.34799" cy="227.13" r="6.4850001" style="fill:white" id="circle310"/>
		<circle cx="408.41101" cy="421.47299" r="5.5640001" style="fill:white" id="circle312"/>
		<circle cx="441.35001" cy="386.33701" r="5.5640001" style="fill:white" id="circle314"/>
		<circle cx="528.64001" cy="210.66" r="5.5640001" style="fill:white" id="circle316"/>
		<circle cx="489.18799" cy="222.53799" r="6.039" style="fill:white" id="circle318"/>
		<circle cx="282.69" cy="155.073" r="7.4349999" style="fill:white" id="circle320"/>
		<circle cx="422.134" cy="380.70901" r="7.4349999" style="fill:white" id="circle322"/>
		<circle cx="443.409" cy="417.35501" r="7.4349999" style="fill:white" id="circle324"/>
		<circle cx="324.00201" cy="425.58899" r="7.4349999" style="fill:white" id="circle326"/>
		<circle cx="320.56299" cy="404.17099" r="7.9770002" style="fill:white" id="circle328"/>
		<circle cx="320.246" cy="85.813004" r="8.2080002" style="fill:white" id="circle330"/>
		<circle cx="496.936" cy="238.383" r="8.2080002" style="fill:white" id="circle332"/>
		<circle cx="563.22601" cy="230.83501" r="8.2080002" style="fill:white" id="circle334"/>
		<circle cx="586.284" cy="343.65302" r="8.2080002" style="fill:white" id="circle336"/>
		<circle cx="591.22498" cy="246.07001" r="8.2080002" style="fill:white" id="circle338"/>
		<circle cx="447.73099" cy="281.27301" r="7.4349999" style="fill:white" id="circle340"/>
	</g>
</g></svg>