<svg height="512pt" viewBox="-120 0 512 512" width="512pt" xmlns="http://www.w3.org/2000/svg"><path style="fill:#329E9F" d="m256 361.5h-67.421875c-1.1875-4.195312-2.855469-8.1875-4.949219-11.914062l47.683594-47.683594c5.859375-5.855469 5.859375-15.351563 0-21.210938-5.855469-5.859375-15.351562-5.859375-21.210938 0l-47.683593 47.679688c-3.726563-2.09375-7.722657-3.757813-11.914063-4.945313v-308.425781c0-8.285156-6.71875-15-15-15-8.285156 0-15 6.714844-15 15v308.425781c-4.195312 1.1875-8.191406 2.851563-11.917968 4.945313l-47.6875-47.683594c-5.855469-5.859375-15.351563-5.859375-21.210938 0-5.859375 5.855469-5.859375 15.351562 0 21.210938l47.683594 47.6875c-2.09375 3.726562-3.761719 7.71875-4.945313 11.914062h-67.425781c-8.285156 0-15 6.714844-15 15s6.714844 15 15 15h67.425781c1.1875 4.195312 2.855469 8.1875 4.945313 11.914062l-47.683594 47.6875c-5.859375 5.859376-5.859375 15.355469 0 21.210938 2.929688 2.929688 6.769531 4.394531 10.605469 4.394531 3.839843 0 7.679687-1.464843 10.609375-4.394531l47.683594-47.683594c3.726562 2.09375 7.722656 3.761719 11.917968 4.945313v67.425781c0 8.285156 6.714844 15 15 15 8.28125 0 15-6.714844 15-15v-67.425781c4.195313-1.183594 8.1875-2.851563 11.914063-4.945313l47.683593 47.683594c2.929688 2.929688 6.769532 4.394531 10.605469 4.394531 3.839844 0 7.679688-1.464843 10.605469-4.394531 5.859375-5.855469 5.859375-15.351562 0-21.210938l-47.683594-47.683593c2.09375-3.726563 3.761719-7.722657 4.949219-11.917969h67.421875c8.285156 0 15-6.714844 15-15s-6.714844-15-15-15zm-145.664062 15c0-13.875 11.289062-25.164062 25.167968-25.164062 13.871094 0 25.15625 11.28125 25.164063 25.152343 0 .003907-.003907.007813-.003907.011719s.003907.007812.003907.011719c-.007813 13.871093-11.296875 25.152343-25.164063 25.152343-13.878906 0-25.167968-11.289062-25.167968-25.164062zm0 0"/></svg>