<svg height="432pt" viewBox="-43 0 432 432" width="432pt" xmlns="http://www.w3.org/2000/svg" style="fill:white"><path d="m257.269531 194.207031c-11.882812.011719-21.515625 9.644531-21.527343 21.527344 0 .054687.007812.109375.007812.164063l-20.691406 18.964843c-7.28125-6.347656-17.902344-7.0625-25.96875-1.746093-8.066406 5.316406-11.59375 15.363281-8.625 24.554687l-18.925782 15.960937c-3.878906-4.960937-9.746093-7.960937-16.035156-8.214843-6.292968-.25-12.378906 2.28125-16.640625 6.914062l-19.375-13.492187c1.96875-10.5625-4.128906-20.96875-14.308593-24.414063-10.179688-3.449219-21.34375 1.113281-26.199219 10.703125-4.851563 9.589844-1.917969 21.289063 6.886719 27.449219 8.804687 6.164063 20.800781 4.917969 28.148437-2.925781l19.445313 13.546875c-1.417969 8.015625 1.808593 16.144531 8.339843 21.003906 6.527344 4.859375 15.238281 5.625 22.511719 1.96875 7.273438-3.652344 11.863281-11.09375 11.859375-19.234375 0-.488281-.039063-.964844-.074219-1.445312l21.128906-17.820313c7.269532 6.050781 17.636719 6.644531 25.546876 1.460937 7.910156-5.183593 11.503906-14.925781 8.855468-24.003906l18.261719-16.738281c5.976563 8.210937 16.886719 11.125 26.160156 6.988281 9.277344-4.140625 14.394531-14.203125 12.277344-24.136718-2.117187-9.9375-10.894531-17.035157-21.054687-17.03125zm-168.941406 70.277344c-5.261719 0-9.527344-4.265625-9.527344-9.53125 0-5.261719 4.265625-9.527344 9.53125-9.527344 5.261719 0 9.527344 4.265625 9.527344 9.527344-.007813 5.261719-4.269531 9.523437-9.53125 9.53125zm56.316406 31.976563c-5.265625 0-9.53125-4.265626-9.53125-9.527344 0-5.261719 4.265625-9.53125 9.53125-9.53125 5.261719 0 9.527344 4.269531 9.527344 9.53125-.007813 5.257812-4.269531 9.523437-9.527344 9.527344zm56.3125-35.835938c-5.261719 0-9.53125-4.265625-9.53125-9.53125 0-5.261719 4.269531-9.527344 9.53125-9.527344 5.265625 0 9.53125 4.265625 9.53125 9.53125-.007812 5.261719-4.269531 9.523438-9.53125 9.527344zm56.3125-35.359375c-5.261719 0-9.527343-4.265625-9.527343-9.53125 0-5.261719 4.265624-9.527344 9.527343-9.527344 5.265625 0 9.53125 4.265625 9.53125 9.527344-.007812 5.261719-4.269531 9.523437-9.53125 9.53125zm0 0"/><path d="m271.023438 251.386719h-27.5c-3.316407 0-6 2.6875-6 6v116.40625c0 3.3125 2.683593 6 6 6h27.5c3.3125 0 6-2.6875 6-6v-116.40625c0-3.3125-2.6875-6-6-6zm-6 116.40625h-15.5v-104.40625h15.5zm0 0"/><path d="m214.707031 286.605469h-27.5c-3.3125 0-6 2.6875-6 6v81.1875c0 3.3125 2.6875 6 6 6h27.5c3.316407 0 6-2.6875 6-6v-81.1875c0-3.3125-2.683593-6-6-6zm-6 81.1875h-15.5v-69.1875h15.5zm0 0"/><path d="m158.398438 322.773438h-27.5c-3.3125 0-6 2.683593-6 6v45.019531c0 3.3125 2.6875 6 6 6h27.5c3.316406 0 6-2.6875 6-6v-45.019531c0-3.316407-2.683594-6-6-6zm-6 45.019531h-15.5v-33.019531h15.5zm0 0"/><path d="m102.078125 290.941406h-27.5c-3.3125 0-6 2.6875-6 6v76.851563c0 3.3125 2.6875 6 6 6h27.5c3.316406 0 6-2.6875 6-6v-76.851563c0-3.3125-2.683594-6-6-6zm-6 76.851563h-15.5v-64.851563h15.5zm0 0"/><path d="m275.652344 0h-194.941406c-3.316407 0-6 2.6875-6 6v13.820312h-47.183594c-15.195313.015626-27.5078128 12.328126-27.527344 27.523438v357.132812c.0195312 15.195313 12.332031 27.507813 27.527344 27.523438h290.546875c15.195312-.015625 27.507812-12.328125 27.527343-27.523438v-357.132812c-.019531-15.191406-12.332031-27.503906-27.523437-27.523438h-36.425781v-13.820312c0-3.3125-2.6875-6-6-6zm-188.941406 12h182.941406v25.007812h-182.941406zm231.363281 19.820312c8.570312.007813 15.515625 6.953126 15.527343 15.523438v357.132812c-.011718 8.570313-6.957031 15.515626-15.527343 15.523438h-290.546875c-8.570313-.007812-15.515625-6.953125-15.527344-15.523438v-357.132812c.011719-8.570312 6.953125-15.511719 15.523438-15.523438h47.183593v11.1875c0 3.3125 2.683594 6 6 6h194.945313c3.3125 0 6-2.6875 6-6v-11.1875zm0 0"/><path d="m59.1875 169.089844h98.09375c3.3125 0 6-2.6875 6-6v-53.804688c0-3.3125-2.6875-6-6-6h-98.09375c-3.3125 0-6 2.6875-6 6v53.804688c0 3.3125 2.6875 6 6 6zm6-53.804688h86.09375v41.804688h-86.09375zm0 0"/><path d="m286.414062 157.089844h-4.167968c-3.3125 0-6 2.6875-6 6s2.6875 6 6 6h4.167968c3.3125 0 6-2.6875 6-6s-2.6875-6-6-6zm0 0"/><path d="m208.660156 169.089844h45.769532c3.3125 0 6-2.6875 6-6s-2.6875-6-6-6h-45.769532c-3.316406 0-6 2.6875-6 6s2.683594 6 6 6zm0 0"/><path d="m234.277344 109.285156c0 3.3125 2.6875 6 6 6h46.136718c3.3125 0 6-2.6875 6-6s-2.6875-6-6-6h-46.136718c-3.3125 0-6 2.6875-6 6zm0 0"/><path d="m208.660156 115.285156h3.800782c3.3125 0 6-2.6875 6-6s-2.6875-6-6-6h-3.800782c-3.316406 0-6 2.6875-6 6s2.683594 6 6 6zm0 0"/><path d="m110.605469 213.089844c0 3.3125 2.6875 6 6 6h70.675781c3.3125 0 6-2.6875 6-6s-2.6875-6-6-6h-70.675781c-3.3125 0-6 2.6875-6 6zm0 0"/><path d="m86.757812 207.089844c-3.3125 0-6 2.6875-6 6s2.6875 6 6 6h7.886719c3.3125 0 6-2.6875 6-6s-2.6875-6-6-6zm0 0"/><path d="m71.171875 213.089844c0-3.3125-2.6875-6-6-6h-5.984375c-3.3125 0-6 2.6875-6 6s2.6875 6 6 6h5.984375c3.3125 0 6-2.6875 6-6zm0 0"/></svg>