<?xml version="1.0" encoding="iso-8859-1"?>
<!-- Generator: Adobe Illustrator 19.0.0, SVG Export Plug-In . SVG Version: 6.00 Build 0)  -->
<svg version="1.1" id="Layer_1" xmlns="http://www.w3.org/2000/svg" xmlns:xlink="http://www.w3.org/1999/xlink" x="0px" y="0px"
	 viewBox="0 0 512 512" style="enable-background:new 0 0 512 512;" xml:space="preserve">
<g style="fill:#329E9F">
	<g>
		<polygon points="370.372,201.055 354.893,185.575 326.425,157.107 310.945,141.627 304.437,135.12 164.291,226.856 
			285.144,347.709 376.88,207.563 		"/>
	</g>
</g>
<g style="fill:#329E9F">
	<g>
		<path d="M43.759,343.358l-17.936,17.937c-34.43,34.43-34.43,90.453,0,124.882c34.43,34.43,90.453,34.43,124.882,0l17.937-17.937
			L43.759,343.358z"/>
	</g>
</g>
<g style="fill:#329E9F">
	<g>
		
			<rect x="112.097" y="258.232" transform="matrix(0.7071 -0.7071 0.7071 0.7071 -196.575 218.497)" width="106.73" height="176.608"/>
	</g>
</g>
<g style="fill:#329E9F">
	<g>
		<polygon points="446.707,86.816 507.875,25.648 486.35,4.125 425.182,65.293 359.89,0 322.001,109.636 330.455,118.09 
			345.935,133.569 378.429,166.065 393.91,181.545 402.364,189.999 512,152.11 		"/>
	</g>
</g>
<g>
</g>
<g>
</g>
<g>
</g>
<g>
</g>
<g>
</g>
<g>
</g>
<g>
</g>
<g>
</g>
<g>
</g>
<g>
</g>
<g>
</g>
<g>
</g>
<g>
</g>
<g>
</g>
<g>
</g>
</svg>
