<svg style="fill:#329E9F" height="480pt" viewBox="0 0 480 480.00001" width="480pt" xmlns="http://www.w3.org/2000/svg"><path style="fill:#329E9F" d="m239.992188 176c-30.871094 0-56 28.710938-56 64s25.128906 64 56 64c30.871093 0 56-28.710938 56-64s-25.128907-64-56-64zm0 112c-22.054688 0-40-21.527344-40-48s17.945312-48 40-48c22.058593 0 40 21.527344 40 48s-17.941407 48-40 48zm0 0"/><path style="fill:#329E9F" d="m287.992188 440h16v16h-16zm0 0"/><path style="fill:#329E9F" d="m263.992188 440h16v16h-16zm0 0"/><path style="fill:#329E9F" d="m287.992188 416h16v16h-16zm0 0"/><path style="fill:#329E9F" d="m477.648438 2.34375c-2.140626-2.140625-5.304688-2.890625-8.175782-1.9375l-50.96875 16.960938c-.09375 0-.183594.105468-.277344.144531-.097656.039062-.355468.167969-.53125.25-.75.34375-1.445312.804687-2.054687 1.367187-.085937.078125-.191406.101563-.273437.183594l-56.550782 56.625c-2.664062-2.585938-5.398437-5.105469-8.253906-7.523438l6.964844-24.460937c1.007812-3.527344-.515625-7.289063-3.695313-9.121094l-27.679687-16c-3.171875-1.835937-7.1875-1.277343-9.742188 1.351563l-17.695312 18.214844c-9.367188-3.359376-19-5.910157-28.800782-7.621094l-6.152343-24.730469c-.894531-3.558594-4.097657-6.05078125-7.769531-6.046875h-32c-3.675782-.00390625-6.878907 2.5-7.765626 6.0625l-6.152343 24.730469c-9.800781 1.710937-19.4375 4.261719-28.800781 7.621093l-17.695313-18.230468c-2.554687-2.628906-6.570313-3.1875-9.746094-1.351563l-27.679687 16c-3.175782 1.832031-4.699219 5.59375-3.695313 9.121094l6.96875 24.460937c-2.871093 2.402344-5.601562 4.953126-8.257812 7.515626l-56.550781-56.617188c-.082032-.082031-.183594-.105469-.273438-.183594-.605469-.558594-1.296875-1.019531-2.046875-1.359375-.183594-.089843-.34375-.183593-.527344-.257812-.183593-.070313-.183593-.105469-.289062-.144531l-50.96875-16.960938c-2.871094-.949219-6.035157-.195312-8.171875 1.945312-2.140625 2.140626-2.886719 5.304688-1.929688 8.175782l16.957032 50.878906c0 .113281.113281.210938.152343.320312.042969.113282.175781.351563.257813.539063.34375.730469.796875 1.40625 1.34375 2 .070312.078125.097656.191406.175781.269531l43.097656 43.113282-3.578125 6.191406c-1.832031 3.171875-1.273437 7.183594 1.351563 9.734375l18.226562 17.707031c-3.363281 9.363281-5.914062 19-7.625 28.796875l-24.730469 6.167969c-3.550781.894531-6.042968 4.089844-6.046874 7.753906v32c0 3.671875 2.503906 6.871094 6.066406 7.761719l24.726562 6.167969c1.699219 9.695312 4.222656 19.230468 7.535156 28.503906l-6.121093-2.175782c-7.429688-3.160156-15.953125-2.398437-22.703125 2.035157-6.753906 4.433593-10.839844 11.949219-10.894532 20.027343.035157 9.609376 5.773438 18.285157 14.605469 22.070313l95.136719 40.761719 3.617188 5.3125v125.535156c0 4.417969 3.582031 8 8 8h160.03125c4.417968 0 8-3.582031 8-8v-125.535156l3.617187-5.3125 95.199219-40.800782c8.886718-3.867187 14.585937-12.695312 14.445312-22.386718-.136718-9.691406-6.082031-18.351563-15.078125-21.964844-5.75-2.34375-12.195312-2.316406-17.925781.078125l-6.578125 2.347656c3.308594-9.269531 5.828125-18.796875 7.527344-28.488281l24.730469-6.167969c3.566406-.890625 6.066406-4.09375 6.0625-7.769531v-32c0-3.671875-2.5-6.871094-6.0625-7.761719l-24.730469-6.167969c-1.710938-9.796874-4.261719-19.433593-7.621094-28.796874l18.230469-17.707032c2.625-2.550781 3.183594-6.5625 1.351562-9.734375l-3.574218-6.191406 43.101562-43.113281c.082031-.078125.105469-.183594.175781-.261719.550781-.597656 1.003907-1.277344 1.34375-2.007813.089844-.1875.1875-.347656.257813-.539062.070312-.191406.113281-.207031.152344-.320312l16.960937-50.878907c.953125-2.871093.207031-6.035156-1.929687-8.175781zm-95.351563 84.054688-10.734375 3.058593c-.570312-.671875-1.144531-1.242187-1.722656-1.898437l51.199218-51.261719 5.699219 5.671875zm77.046875-65.757813-7.816406 23.429687-15.65625-15.613281zm-361.65625 65.757813-44.4375-44.453126 5.695312-5.671874 51.199219 51.269531c-.566406.640625-1.160156 1.226562-1.71875 1.890625zm-53.597656-57.917969-15.632813 15.589843-7.816406-23.429687zm-7.839844 30.398437 5.65625-5.597656 32.902344 32.902344-4.136719 7.160156zm377.878906 212.066406c1.941406-.847656 4.144532-.882812 6.113282-.097656 1.984374.796875 3.570312 2.351563 4.40625 4.320313.839843 1.949219.867187 4.15625.078124 6.125-.785156 1.972656-2.324218 3.550781-4.277343 4.386719l-97.257813 41.679687c-1.398437.605469-2.597656 1.59375-3.453125 2.855469l-6.320312 9.28125c-.917969 1.324218-1.414063 2.894531-1.425781 4.503906v120h-144v-120c0-1.605469-.484376-3.175781-1.390626-4.503906l-6.320312-9.28125c-.855469-1.261719-2.054688-2.25-3.457031-2.855469l-97.246094-41.65625c-2.972656-1.253906-4.914063-4.15625-4.945313-7.382813.023438-1.085937.265626-2.15625.703126-3.152343.835937-1.96875 2.425781-3.523438 4.410156-4.320313 2.140625-.816406 4.523437-.710937 6.582031.289063l11.199219 4 .136718.046875 79.671876 28.375c.855468.296875 1.753906.445312 2.65625.441406h31.496093c.878907 1.726562 1.855469 3.488281 2.960938 5.289062l.046875.078126c9.238281 16.449218 26.636718 26.632812 45.5 26.632812 18.867187 0 36.261718-10.183594 45.5-26.632812v-.078126c1.105468-1.800781 2.082031-3.5625 2.960937-5.289062h31.535157c.914062 0 1.820312-.15625 2.679687-.464844l79.503906-28.335937.335938-.128907zm-118.9375 17.054688h-11.839844c-3.269531-.003906-6.214843 1.988281-7.429687 5.023438-1.113281 2.726562-2.449219 5.355468-4 7.855468-6.308594 11.773438-18.582031 19.121094-31.9375 19.121094s-25.628906-7.347656-31.933594-19.121094c-1.550781-2.5-2.890625-5.128906-4-7.855468-1.214843-3.03125-4.152343-5.019532-7.417969-5.023438h-11.839843c-30.433594-18.878906-48.90625-52.1875-48.800781-88 .003906-10.425781 1.554687-20.796875 4.609374-30.769531 2.347657-7.609375 5.570313-14.925781 9.597657-21.796875 3.828125-6.492188 8.34375-12.554688 13.472656-18.074219 19.667969-21.269531 47.324219-33.367187 76.296875-33.367187s56.628906 12.097656 76.296875 33.367187c10.585937 11.382813 18.476563 24.996094 23.085937 39.839844 3.066407 9.980469 4.628907 20.359375 4.640626 30.800781.105468 35.8125-18.363282 69.121094-48.800782 88zm91.472656-154.535156c-2.324218 2.25-3.066406 5.683594-1.871093 8.695312 4.511719 11.445313 7.675781 23.378906 9.425781 35.558594.46875 3.207031 2.828125 5.816406 5.972656 6.601562l23.800782 5.925782v19.507812l-23.785157 5.925782c-3.144531.785156-5.503906 3.394531-5.972656 6.601562-1.757813 12.179688-4.925781 24.113281-9.441406 35.558594-.824219 2.105468-.71875 4.457031.289062 6.480468l-62 22.078126c32.707031-31.394532 44.925781-78.546876 31.582031-121.878907-5.335937-17.148437-14.449218-32.878906-26.671874-46.039062-25.820313-27.816407-63.269532-41.792969-101-37.695313-37.734376 4.097656-71.308594 25.785156-90.558594 58.496094-4.683594 7.945312-8.425782 16.410156-11.152344 25.222656-13.34375 43.339844-1.113281 90.5 31.609375 121.894532l-62.007813-22.070313c1.007813-2.023437 1.117188-4.382813.292969-6.488281-4.511719-11.445313-7.671875-23.378906-9.421875-35.558594-.472656-3.207031-2.832031-5.816406-5.976562-6.601562l-23.785156-5.925782v-19.507812l23.785156-5.925782c3.144531-.785156 5.503906-3.394531 5.976562-6.601562 1.753906-12.179688 4.921875-24.113281 9.4375-35.558594 1.199219-3.007812.464844-6.441406-1.855468-8.695312l-17.527344-17.023438 9.753906-16.882812 23.542969 6.699218c3.105469.890626 6.441406-.183593 8.4375-2.722656 2.992187-3.761718 6.171875-7.367187 9.53125-10.808594 5.09375-5.476562 10.597656-10.558593 16.460937-15.199218 2.539063-2.007813 3.617188-5.351563 2.730469-8.464844l-6.722656-23.460938 16.898437-9.761718 17.015625 17.527344c2.257813 2.324218 5.695313 3.058593 8.703125 1.855468 11.445313-4.515625 23.378906-7.683594 35.5625-9.4375 3.207032-.472656 5.8125-2.832031 6.597656-5.976562l5.921876-23.808594h19.503906l5.917968 23.777344c.785157 3.144531 3.394532 5.503906 6.601563 5.976562 12.179687 1.753906 24.113281 4.925782 35.558594 9.445313 3.011719 1.203125 6.445312.46875 8.703125-1.855469l17.015625-17.527344 16.898437 9.785156-6.703125 23.519532c-.886719 3.113281.1875 6.453125 2.726563 8.464844 5.917968 4.675781 11.46875 9.800781 16.609375 15.324218 3.304687 3.394532 6.4375 6.949219 9.382812 10.65625 2.007813 2.527344 5.335938 3.601563 8.441407 2.722656l23.542968-6.695312 9.75 16.878906zm18.496094-47.3125 32.90625-32.90625 5.65625 5.640625-34.402344 34.402343zm0 0"/></svg>