<?xml version="1.0" encoding="iso-8859-1"?>
<!-- Generator: Adobe Illustrator 16.0.0, SVG Export Plug-In . SVG Version: 6.00 Build 0)  -->
<!DOCTYPE svg PUBLIC "-//W3C//DTD SVG 1.1//EN" "http://www.w3.org/Graphics/SVG/1.1/DTD/svg11.dtd">
<svg version="1.1" id="Capa_1" xmlns="http://www.w3.org/2000/svg" xmlns:xlink="http://www.w3.org/1999/xlink" x="0px" y="0px"
	 width="548.17px" height="548.17px" viewBox="0 0 548.17 548.17" style="enable-background:new 0 0 548.17 548.17;"
	 xml:space="preserve">
<g>
	<path style="fill:white" d="M544.809,289.847l-11.24,3.222l-5.979,12.543h7.685v40.865c0,5.449-2.07,9.863-4.628,9.863l-177.31-50.729H163.872
		c-1.105,0-2.208-0.012-3.3-0.036v-62.983c1.099-0.021,2.201-0.033,3.3-0.033h193.197l173.577-50.729
		c2.558,0,4.628,4.414,4.628,9.87v40.858h-11.168l9.463,13.089l11.24,3.361C552.371,274.995,544.809,289.847,544.809,289.847z
		 M0,272.508c0,15.719,110.409,30.327,147.16,32.714v-62.265C110.409,245.341,0,256.795,0,272.508z"/>
</g>
<g>
</g>
<g>
</g>
<g>
</g>
<g>
</g>
<g>
</g>
<g>
</g>
<g>
</g>
<g>
</g>
<g>
</g>
<g>
</g>
<g>
</g>
<g>
</g>
<g>
</g>
<g>
</g>
<g>
</g>
</svg>
