<?xml version="1.0" encoding="iso-8859-1"?>
<!-- Generator: Adobe Illustrator 19.0.0, SVG Export Plug-In . SVG Version: 6.00 Build 0)  -->
<svg version="1.1" id="Capa_1" xmlns="http://www.w3.org/2000/svg" xmlns:xlink="http://www.w3.org/1999/xlink" x="0px" y="0px"
	 viewBox="0 0 460.8 460.8" style="fill:darkturquoise;enable-background:new 0 0 460.8 460.8;" xml:space="preserve">
<g>
	<g>
		<path d="M238.368,254.4v206.4c96-30.4,137.68-123.6,154.96-206.4H238.368z"/>
	</g>
</g>
<g>
	<g>
		<path d="M67.408,254.4c17.28,82.8,58.96,176,154.96,206.4V254.4H67.408z"/>
	</g>
</g>
<g>
	<g>
		<path d="M62.368,101.04c-3.555,0.719-6.182,3.74-6.4,7.36c-1.88,43.509,0.936,87.094,8.4,130h158V0
			C212.448,12.56,154.288,82,62.368,101.04z"/>
	</g>
</g>
<g>
	<g>
		<path d="M404.848,108.4c-0.218-3.62-2.845-6.641-6.4-7.36C306.688,82,248.288,12.56,238.368,0v238.4h158
			C403.858,195.497,406.701,151.912,404.848,108.4z"/>
	</g>
</g>
<g>
</g>
<g>
</g>
<g>
</g>
<g>
</g>
<g>
</g>
<g>
</g>
<g>
</g>
<g>
</g>
<g>
</g>
<g>
</g>
<g>
</g>
<g>
</g>
<g>
</g>
<g>
</g>
<g>
</g>
</svg>
